<?xml version="1.0" standalone="no"?>
<!DOCTYPE svg PUBLIC "-//W3C//DTD SVG 20010904//EN"
 "http://www.w3.org/TR/2001/REC-SVG-20010904/DTD/svg10.dtd">
<svg version="1.0" xmlns="http://www.w3.org/2000/svg"
 width="128.000000pt" height="128.000000pt" viewBox="0 0 128.000000 128.000000"
 preserveAspectRatio="xMidYMid meet">

<g transform="translate(0.000000,128.000000) scale(0.100000,-0.100000)"
fill="#000000" stroke="none">
<path d="M257 1263 c-8 -10 -17 -29 -19 -43 -3 -23 -8 -25 -63 -30 -120 -10
-115 16 -115 -596 0 -551 1 -557 56 -583 35 -16 1013 -16 1048 0 55 26 56 32
56 583 0 612 5 586 -115 596 -55 5 -60 7 -63 30 -11 81 -122 78 -122 -3 l0
-27 -280 0 -280 0 0 28 c0 54 -68 83 -103 45z m63 -48 c0 -18 -5 -25 -20 -25
-15 0 -20 7 -20 25 0 18 5 25 20 25 15 0 20 -7 20 -25z m680 0 c0 -18 -5 -25
-20 -25 -15 0 -20 7 -20 25 0 18 5 25 20 25 15 0 20 -7 20 -25z m-760 -93 c0
-41 14 -65 43 -75 24 -9 36 22 14 35 -11 6 -17 22 -17 43 l0 35 320 0 320 0 0
-38 c0 -41 14 -65 43 -75 24 -9 36 22 14 35 -11 6 -17 22 -17 43 l0 35 90 0
c123 0 130 -7 130 -135 l0 -95 -407 -2 c-355 -3 -408 -5 -408 -18 0 -13 53
-15 408 -18 l407 -2 0 -249 c0 -214 -2 -252 -16 -265 -12 -12 -36 -16 -100
-16 -77 0 -87 -2 -109 -25 -23 -22 -25 -32 -25 -109 0 -64 -4 -88 -16 -100
-13 -14 -63 -16 -395 -16 -366 0 -380 1 -399 20 -19 19 -20 33 -20 390 l0 370
111 0 c100 0 110 2 107 18 -3 15 -18 17 -111 20 l-107 3 0 94 c0 117 12 135
90 135 l50 0 0 -38z m820 -887 l-85 -86 -3 72 c-2 43 2 76 9 85 8 10 34 14 88
14 l76 0 -85 -85z m105 -171 l-16 -24 -511 2 -511 3 -16 25 c-15 23 -15 24 4
15 28 -14 775 -19 822 -6 28 8 64 37 138 111 l100 100 3 -101 c2 -79 -1 -107
-13 -125z"/>
<path d="M187 803 c-12 -11 -8 -128 5 -141 7 -7 37 -12 68 -12 31 0 61 5 68
12 12 12 17 104 6 132 -5 12 -21 16 -73 16 -37 0 -71 -3 -74 -7z m113 -68 l0
-45 -45 0 -45 0 0 38 c0 21 3 42 7 45 3 4 24 7 45 7 l38 0 0 -45z"/>
<path d="M442 798 c-16 -16 -16 -120 0 -136 17 -17 123 -16 137 2 7 9 11 40 9
78 l-3 63 -65 3 c-42 2 -70 -2 -78 -10z m116 -65 l3 -43 -45 0 -46 0 0 46 0
45 43 -3 c42 -3 42 -3 45 -45z"/>
<path d="M697 803 c-12 -11 -8 -128 5 -141 7 -7 37 -12 68 -12 31 0 61 5 68
12 16 16 16 120 0 136 -13 13 -130 17 -141 5z m113 -68 l0 -45 -45 0 -45 0 0
38 c0 21 3 42 7 45 3 4 24 7 45 7 l38 0 0 -45z"/>
<path d="M946 795 c-11 -28 -7 -120 6 -133 17 -17 123 -16 137 2 7 9 11 40 9
78 l-3 63 -71 3 c-59 2 -73 0 -78 -13z m122 -62 l3 -43 -45 0 -46 0 0 46 0 45
43 -3 c42 -3 42 -3 45 -45z"/>
<path d="M184 566 c-3 -7 -4 -42 -2 -77 l3 -64 63 -3 c38 -2 69 2 78 9 18 14
19 120 2 137 -17 17 -137 16 -144 -2z m116 -66 l0 -40 -45 0 -45 0 0 40 0 40
45 0 45 0 0 -40z"/>
<path d="M442 568 c-17 -17 -16 -122 2 -137 9 -7 40 -11 78 -9 l63 3 0 75 0
75 -65 3 c-42 2 -70 -2 -78 -10z m118 -68 l0 -40 -45 0 -45 0 0 40 0 40 45 0
45 0 0 -40z"/>
<path d="M694 566 c-3 -7 -4 -42 -2 -77 l3 -64 63 -3 c38 -2 69 2 78 9 18 14
19 120 2 137 -17 17 -137 16 -144 -2z m116 -66 l0 -40 -45 0 -45 0 0 40 0 40
45 0 45 0 0 -40z"/>
<path d="M958 569 c-14 -8 -18 -24 -18 -74 0 -74 10 -85 80 -85 70 0 80 11 80
85 0 53 -3 66 -19 75 -25 13 -101 13 -123 -1z m112 -74 l0 -45 -45 0 -45 0 0
45 0 45 45 0 45 0 0 -45z"/>
<path d="M192 341 c-9 -5 -12 -28 -10 -77 l3 -69 63 -3 c38 -2 69 2 78 9 18
14 19 120 2 137 -14 14 -116 16 -136 3z m108 -77 l0 -45 -42 3 c-43 3 -43 3
-46 46 l-3 42 45 0 46 0 0 -46z"/>
<path d="M442 338 c-17 -17 -16 -123 2 -137 9 -7 40 -11 78 -9 l63 3 3 69 c2
49 -1 72 -10 77 -20 13 -122 11 -136 -3z m116 -70 c-3 -43 -3 -43 -45 -46
l-43 -3 0 45 0 46 46 0 45 0 -3 -42z"/>
<path d="M703 343 c-19 -7 -17 -73 2 -73 8 0 15 9 15 20 0 17 7 20 45 20 l45
0 0 -45 0 -45 -39 0 c-22 0 -43 5 -46 10 -12 20 -36 11 -33 -12 3 -21 9 -23
66 -26 38 -2 69 2 78 9 18 14 19 120 2 137 -12 12 -110 16 -135 5z"/>
</g>
</svg>
