<?xml version="1.0" standalone="no"?>
<!DOCTYPE svg PUBLIC "-//W3C//DTD SVG 20010904//EN"
 "http://www.w3.org/TR/2001/REC-SVG-20010904/DTD/svg10.dtd">
<svg version="1.0" xmlns="http://www.w3.org/2000/svg"
 width="128.000000pt" height="128.000000pt" viewBox="0 0 128.000000 128.000000"
 preserveAspectRatio="xMidYMid meet">

<g transform="translate(0.000000,128.000000) scale(0.100000,-0.100000)"
fill="#000000" stroke="none">
<path d="M740 1220 c-137 -75 -213 -148 -268 -258 -22 -45 -44 -103 -48 -129
-3 -27 -8 -51 -10 -54 -2 -4 -41 4 -86 17 -45 13 -83 23 -84 21 -2 -1 -12 -24
-24 -51 -29 -68 -57 -183 -65 -263 -23 -228 118 -430 342 -488 74 -19 213 -19
288 0 177 46 313 197 333 367 18 161 -22 272 -144 395 -127 129 -158 222 -135
407 6 49 10 91 8 92 -1 1 -49 -24 -107 -56z m15 -108 c-9 -45 13 -161 45 -230
20 -44 56 -90 115 -152 110 -115 129 -154 129 -280 1 -88 -2 -101 -31 -161
-30 -60 -117 -159 -129 -146 -3 2 0 16 6 31 16 42 11 117 -10 163 -10 24 -39
64 -64 89 -57 57 -69 99 -58 193 5 39 7 71 6 71 -2 0 -34 -17 -71 -37 -87 -48
-134 -96 -163 -166 -21 -50 -26 -56 -47 -51 -52 14 -56 11 -80 -56 -24 -69
-30 -169 -13 -215 9 -23 8 -25 -9 -16 -33 18 -93 93 -119 150 -44 96 -39 273
11 394 l16 36 68 -20 c37 -11 83 -23 101 -26 l32 -6 0 62 c0 141 84 288 214
375 50 33 59 33 51 -2z m-75 -578 c0 -42 28 -101 70 -148 61 -67 72 -89 72
-148 0 -35 -7 -59 -25 -87 -34 -52 -79 -71 -165 -71 -60 0 -74 4 -109 29 -59
43 -80 102 -65 183 6 33 13 62 15 64 2 2 26 -3 53 -11 27 -8 50 -15 52 -15 1
0 2 14 2 31 0 53 21 116 52 153 32 39 48 46 48 20z"/>
</g>
</svg>
