<?xml version="1.0" standalone="no"?>
<!DOCTYPE svg PUBLIC "-//W3C//DTD SVG 20010904//EN"
 "http://www.w3.org/TR/2001/REC-SVG-20010904/DTD/svg10.dtd">
<svg version="1.0" xmlns="http://www.w3.org/2000/svg"
 width="128.000000pt" height="128.000000pt" viewBox="0 0 128.000000 128.000000"
 preserveAspectRatio="xMidYMid meet">

<g transform="translate(0.000000,128.000000) scale(0.100000,-0.100000)"
fill="#000000" stroke="none">
<path d="M545 1266 c-232 -58 -370 -304 -295 -527 12 -34 54 -114 95 -178 41
-65 75 -120 75 -124 0 -3 -19 -8 -42 -12 -67 -11 -176 -51 -219 -80 -75 -49
-98 -119 -59 -182 116 -190 808 -220 1038 -45 87 66 80 163 -17 227 -43 29
-152 69 -218 80 -24 4 -43 9 -43 12 0 4 34 59 75 124 41 64 83 144 95 178 76
228 -69 479 -308 530 -66 14 -112 13 -177 -3z m238 -95 c71 -35 141 -109 167
-178 27 -70 30 -178 7 -240 -18 -47 -305 -503 -317 -503 -12 0 -299 456 -317
503 -9 24 -16 73 -16 112 1 147 84 269 221 320 59 23 196 15 255 -14z m-239
-920 c68 -109 83 -125 110 -115 7 3 44 55 82 115 l69 111 51 -6 c114 -13 228
-62 262 -113 13 -21 12 -25 -19 -56 -68 -68 -237 -107 -459 -107 -247 0 -438
52 -480 130 -22 41 56 97 183 130 127 33 122 36 201 -89z"/>
<path d="M565 1036 c-56 -24 -115 -112 -115 -171 0 -32 25 -90 53 -122 75 -85
199 -85 274 0 28 32 53 90 53 122 0 60 -60 148 -117 171 -41 17 -109 17 -148
0z m133 -79 c68 -33 67 -150 -2 -187 -54 -29 -126 -9 -152 42 -35 68 -4 136
76 161 18 6 46 0 78 -16z"/>
</g>
</svg>
