<?xml version="1.0" standalone="no"?>
<!DOCTYPE svg PUBLIC "-//W3C//DTD SVG 20010904//EN"
 "http://www.w3.org/TR/2001/REC-SVG-20010904/DTD/svg10.dtd">
<svg version="1.0" xmlns="http://www.w3.org/2000/svg"
 width="64.000000pt" height="64.000000pt" viewBox="0 0 64.000000 64.000000"
 preserveAspectRatio="xMidYMid meet">

<g transform="translate(0.000000,64.000000) scale(0.100000,-0.100000)"
fill="#000000" stroke="none">
<path d="M40 539 c-13 -6 -28 -15 -32 -22 -10 -16 -10 -378 0 -394 17 -27 70
-33 312 -33 242 0 295 6 312 33 10 16 10 378 0 394 -4 6 -20 17 -35 22 -36 14
-523 14 -557 0z m420 -144 c-86 -86 -121 -115 -140 -115 -19 0 -54 29 -140
115 l-115 115 255 0 255 0 -115 -115z m-343 -152 l-77 -78 0 155 0 155 77 -78
78 -77 -78 -77z m483 75 l0 -153 -77 77 -78 78 75 75 c41 41 76 75 77 75 2 0
3 -69 3 -152z m-280 -78 c14 0 41 11 61 24 l36 25 79 -80 79 -79 -255 0 -255
0 79 79 79 80 36 -25 c20 -13 47 -24 61 -24z"/>
</g>
</svg>
